<?xml version="1.0" encoding="UTF-8"?>
<svg id="Layer_1" data-name="Layer 1" xmlns="http://www.w3.org/2000/svg" viewBox="0 0 139.01 43.28">
  <defs>
    <style>
      .cls-1 {
        opacity: .5;
      }

      .cls-2 {
        fill: #662d91;
      }

      .cls-3 {
        fill: none;
      }

      .cls-4 {
        fill: #ed1e79;
      }
    </style>
  </defs>
  <path class="cls-2" d="m82.13,8.97c-1.53-2.83-3.68-4.98-6.44-6.44-2.75-1.45-5.99-2.18-9.71-2.18s-6.95.73-9.71,2.18c-2.76,1.46-4.91,3.61-6.44,6.44-1.53,2.84-2.3,6.27-2.3,10.29v22.01h9.2v-9.65h18.39v9.65h9.31v-22.01c0-4.02-.77-7.45-2.3-10.29Zm-7.01,15.18h-18.39v-5.75c0-3.34.81-5.85,2.44-7.56,1.63-1.7,3.88-2.56,6.75-2.56s5.08.86,6.73,2.56c1.65,1.71,2.47,4.22,2.47,7.56v5.75Z"/>
  <g>
    <path class="cls-4" d="m136.14,30.81c-1.65,1.15-3.66,2.04-6.04,2.67-2.37.64-4.75.95-7.12.95-3.38,0-5.88-.45-7.5-1.35-1.63-.9-2.45-2.15-2.45-3.76s.64-2.7,1.9-3.51c1.26-.8,3.06-1.2,5.4-1.2h11.55v-7.36h-10.97c-2.07,0-3.61-.38-4.63-1.12-1.02-.75-1.52-1.83-1.52-3.25,0-1.53.75-2.75,2.27-3.65,1.51-.9,3.76-1.35,6.75-1.35,3.95,0,7.68.82,11.21,2.47l2.58-7.13c-1.83-.88-4-1.58-6.49-2.09-2.49-.52-5.04-.78-7.64-.78-3.95,0-7.28.54-10.01,1.61-2.72,1.07-4.75,2.51-6.09,4.31-1.34,1.8-2.01,3.79-2.01,5.98,0,1.8.43,3.43,1.29,4.88.87,1.46,2.08,2.61,3.65,3.45-2.06.81-3.69,2.03-4.88,3.68-1.19,1.65-1.78,3.54-1.78,5.69,0,2.34.72,4.42,2.18,6.24s3.6,3.23,6.44,4.25c2.83,1.01,6.28,1.52,10.34,1.52,3.26,0,6.33-.36,9.23-1.09,2.89-.73,5.3-1.74,7.21-3.05l-2.87-7.01Z"/>
    <path class="cls-2" d="m97.2.62c-1.53-.18-3.08-.27-4.65-.27s-3.06.09-4.57.27c-.03,0-.05.01-.08.01l.03,7.82h.02v32.82h9.31V8.45h.01V.63s-.04-.01-.07-.01Z"/>
    <path class="cls-1" d="m86.76,1.59c-3.44.26-9.09.24-12.43-.57l-1.51,6.87c3.03.78,6.18,1.14,9.47,1.09.7,0,3.66-.28,4.36-.32l.1-7.08Z"/>
    <path class="cls-4" d="m87.05.63c-3.47.29-9.17.25-12.59-.63l-1.18,7.55c3.1.85,6.31,1.24,9.64,1.19.7,0,3.68-.28,4.38-.33l-.26-7.78Z"/>
    <path class="cls-1" d="m49.39,14.15s-.24-.65-.24-.65l-.63,26.16c.85-1.99,1.08-3.44,1.6-5.99.63-3.02.94-6.11.94-9.27,0-4.78-.37-6.94-1.67-10.24Z"/>
    <polyline class="cls-3" points="87.91 .63 87.94 8.45 87.96 14.93"/>
    <polyline class="cls-3" points="97.29 .63 97.28 8.45 97.27 14.4"/>
    <path class="cls-1" d="m111.8,2.59l-1.61,7.49c-3.3-1.04-8.72-1.52-12.16-1.43l.22-7.77c.63,0,3.31,0,3.94.03,3.37.11,6.56.67,9.61,1.69Z"/>
    <path class="cls-4" d="m111.49,2.23l-1.49,7.5c-3.29-1-8.68-1.45-12.1-1.33l.11-7.77c.62-.01,3.3,0,3.93.01,3.35.08,6.52.6,9.56,1.59Z"/>
    <path class="cls-4" d="m48.5,12.27c-1.3-3.3-3.04-5.76-5.22-7.39-2.19-1.63-4.6-2.44-7.25-2.44-2.19,0-4.16.52-5.92,1.57-1.77,1.04-3.16,2.52-4.19,4.42-.97-2.5-2.46-4.48-4.46-5.92-1.99-1.44-4.29-2.16-6.89-2.16-2.84,0-5.36.88-7.56,2.65-2.21,1.76-3.93,4.36-5.16,7.8-1.23,3.44-1.85,7.62-1.85,12.55,0,3.94.44,7.67,1.33,11.18.88,3.51,2.11,6.42,3.69,8.75l8.5-3.49c-1.39-2-2.47-4.43-3.24-7.31-.77-2.88-1.15-5.77-1.15-8.65,0-4.08.55-7.11,1.64-9.09,1.09-1.97,2.61-2.96,4.56-2.96s3.28.77,4.25,2.3c.98,1.53,1.47,3.72,1.47,6.55v14.01h8.92v-13.31c0-2.51.45-4.38,1.36-5.61.9-1.24,2.21-1.85,3.93-1.85,1.86,0,3.34.92,4.43,2.75,1.09,1.84,1.63,4.57,1.63,8.19,0,4.79-.99,9.31-2.99,13.59l8.64,3.14c1.07-2.23,1.92-4.86,2.54-7.88.63-3.02.94-6.11.94-9.27,0-4.78-.65-8.82-1.95-12.12Z"/>
    <line class="cls-3" x1="49.05" y1="13.82" x2="48.52" y2="39.65"/>
  </g>
</svg>